<?xml version="1.0" encoding="iso-8859-1"?>
<!DOCTYPE svg PUBLIC "-//W3C//DTD SVG 1.1//EN" "http://www.w3.org/Graphics/SVG/1.1/DTD/svg11.dtd">
<svg version="1.1" id="config" xmlns="http://www.w3.org/2000/svg" xmlns:xlink="http://www.w3.org/1999/xlink" x="0px" y="0px"
	 viewBox="0 0 411.807 411.807" style="enable-background:new 0 0 411.807 411.807;" xml:space="preserve">
<g>
	<path d="M406.478,112.118c-1.009-3.709-4.631-7.464-9.602-7.464c-1.923,0-3.849,0.605-5.57,1.751l-1.572,1.045l-23.754,88.652
		l-102.788,27.542l-75.245-75.246l27.541-102.788l89.642-24.019l1.037-1.78c1.557-2.674,1.816-5.601,0.73-8.243
		c-1.421-3.457-4.703-5.439-7.3-6.14c-12.969-3.506-26.373-5.284-39.84-5.284c-40.614,0-78.797,15.814-107.513,44.531
		c-28.723,28.722-44.54,66.909-44.539,107.529c0,27.195,7.101,53.295,20.408,76.2L11.399,345.117
		c-15.199,15.198-15.199,39.93,0,55.131c7.362,7.361,17.151,11.416,27.563,11.416c10.413,0,20.202-4.055,27.564-11.418
		l116.626-116.624c23.005,13.464,49.259,20.652,76.621,20.653c40.616,0,78.808-15.819,107.527-44.54
		C405.782,221.255,420.793,164.692,406.478,112.118z"/>
	<path d="M242.066,61.41c-4.414,1.183-8.476,5.245-9.659,9.659l-16.733,62.453c-1.184,4.414,0.304,9.963,3.535,13.194l45.72,45.719
		c2.426,2.427,6.272,3.935,10.037,3.935c1.107,0,2.169-0.135,3.156-0.398l62.454-16.734c4.416-1.183,8.478-5.246,9.659-9.659
		l16.733-62.453c1.184-4.414-0.304-9.963-3.535-13.194l-45.72-45.721c-2.427-2.427-6.273-3.934-10.037-3.934
		c-1.107,0-2.169,0.135-3.156,0.398L242.066,61.41z M310.936,100.708c10.833,10.833,10.833,28.397,0,39.23
		c-10.833,10.833-28.397,10.833-39.23,0c-10.833-10.833-10.833-28.397,0-39.23C282.539,89.874,300.103,89.874,310.936,100.708z"/>
</g>
</svg>
